<?xml version="1.0" standalone="no"?>
<!DOCTYPE svg PUBLIC "-//W3C//DTD SVG 20010904//EN"
 "http://www.w3.org/TR/2001/REC-SVG-20010904/DTD/svg10.dtd">
<svg version="1.0" xmlns="http://www.w3.org/2000/svg"
 width="225.000000pt" height="225.000000pt" viewBox="0 0 225.000000 225.000000"
 preserveAspectRatio="xMidYMid meet">

<g transform="translate(0.000000,225.000000) scale(0.100000,-0.100000)"
fill="#000000" stroke="none">
<path d="M698 1990 c-80 -24 -129 -82 -155 -183 -20 -79 -7 -150 41 -227 l33
-53 -29 -65 c-16 -36 -37 -97 -45 -136 -30 -141 15 -224 153 -281 38 -16 70
-30 72 -31 2 -1 -6 -17 -16 -35 -11 -19 -25 -52 -32 -74 -18 -57 -16 -56 -63
-35 -55 25 -133 26 -173 1 -93 -57 -79 -246 26 -351 l37 -37 -33 -16 c-67 -33
-61 -87 11 -87 24 0 34 -5 38 -20 7 -26 42 -26 125 0 79 25 82 25 82 0 0 -29
21 -34 64 -16 35 15 36 14 42 -9 11 -45 50 -35 82 21 9 15 13 17 23 7 19 -19
47 -16 61 7 11 17 24 20 83 20 59 0 72 -3 83 -20 14 -23 42 -26 61 -7 11 10
15 9 19 -2 7 -20 49 -61 62 -61 6 0 16 13 21 29 10 29 11 29 46 15 42 -18 63
-12 63 16 0 25 3 25 82 0 83 -26 118 -26 125 0 4 16 14 20 43 20 69 0 78 52
15 86 l-35 18 35 36 c104 107 115 294 21 351 -40 25 -118 24 -173 0 -43 -20
-53 -18 -53 8 0 9 -13 43 -29 76 l-28 60 70 29 c140 57 185 143 153 287 -9 41
-29 101 -44 134 l-28 59 32 54 c65 107 68 218 9 318 -78 133 -274 129 -373 -9
-34 -47 -36 -48 -76 -41 -52 8 -150 8 -202 0 -39 -7 -42 -6 -67 33 -34 51 -85
89 -143 107 -52 15 -76 16 -116 4z m137 -39 c42 -19 115 -92 115 -114 0 -7
-14 -18 -32 -25 -30 -11 -33 -10 -63 25 -27 32 -38 37 -87 41 -53 4 -58 2 -93
-30 -33 -30 -39 -42 -42 -89 -4 -46 -1 -60 21 -92 32 -46 31 -45 3 -81 l-23
-29 -22 28 c-33 42 -55 129 -49 190 16 154 142 235 272 176z m772 -17 c58 -48
78 -95 78 -189 0 -64 -5 -89 -24 -125 -38 -73 -41 -75 -67 -36 -29 43 -29 44
-3 73 30 31 38 115 15 158 -44 82 -166 87 -222 10 -18 -23 -21 -24 -51 -13
-18 7 -33 18 -33 26 0 22 96 110 131 121 61 19 135 8 176 -25z m-820 -75 c33
-12 73 -48 73 -65 0 -22 -32 -25 -55 -4 -26 24 -53 26 -83 4 -26 -18 -30 -68
-7 -101 13 -19 13 -22 -1 -34 -14 -11 -20 -9 -40 14 -47 55 -25 154 41 183 37
16 37 16 72 3z m748 -3 c43 -18 66 -54 67 -103 0 -50 -27 -105 -50 -101 -17 4
-18 9 -6 89 5 30 2 39 -17 53 -31 21 -51 20 -82 -4 -26 -20 -57 -18 -57 4 0
24 67 72 103 75 4 1 23 -5 42 -13z m-282 -42 c86 -22 152 -58 215 -118 164
-154 268 -426 203 -532 -64 -105 -270 -168 -546 -168 -287 0 -506 72 -551 180
-66 158 124 510 323 601 116 53 243 67 356 37z m-323 -831 c113 -18 371 -12
462 10 64 16 64 16 95 -48 33 -66 46 -140 40 -232 -4 -71 -11 -97 -42 -160
-23 -46 -46 -78 -60 -85 l-24 -11 25 -32 c49 -65 13 -83 -46 -22 l-30 31 0
-48 c0 -57 -16 -58 -44 -2 l-19 38 -22 -28 c-32 -40 -48 -24 -43 40 3 39 17
76 54 142 70 127 83 162 83 226 1 81 -15 81 -21 0 -5 -70 -18 -103 -93 -236
-21 -38 -41 -86 -45 -105 l-5 -36 -70 0 -70 0 -6 36 c-3 20 -18 58 -32 85 -74
132 -99 194 -106 261 -6 57 -9 64 -15 40 -19 -64 1 -125 99 -307 24 -45 35
-78 35 -108 0 -52 -23 -67 -50 -32 l-17 23 -19 -39 c-28 -56 -44 -55 -44 2 l0
48 -32 -31 c-63 -58 -96 -43 -45 21 l24 29 -33 29 c-19 17 -43 56 -60 96 -23
57 -27 82 -28 167 -1 105 13 166 54 233 15 25 25 32 38 27 9 -4 60 -14 112
-22z m-273 -140 l37 -18 2 -76 c1 -42 7 -93 13 -114 6 -22 9 -40 7 -42 -2 -2
-29 30 -61 72 -32 41 -59 75 -62 75 -15 0 59 -114 103 -157 30 -30 54 -58 54
-62 0 -4 13 -22 29 -41 36 -43 27 -66 -27 -75 -20 -4 -58 -13 -84 -22 -26 -8
-55 -13 -64 -11 -14 3 -12 7 7 32 l23 29 -24 -6 c-55 -16 -110 -20 -110 -9 0
23 49 44 87 38 21 -3 58 -8 83 -11 l45 -6 -52 19 c-139 50 -213 146 -213 276
0 56 22 100 62 123 28 17 93 10 145 -14z m1077 17 c65 -24 89 -156 45 -247
-31 -64 -109 -129 -183 -152 -54 -18 -57 -20 -26 -20 19 0 53 6 74 14 36 12
43 12 78 -6 21 -11 38 -24 38 -29 0 -13 -45 -13 -89 0 -42 12 -50 6 -28 -18
35 -39 21 -40 -108 -6 -38 10 -75 25 -82 33 -13 18 2 40 99 144 53 57 115 153
106 163 -3 2 -21 -20 -41 -49 -21 -30 -48 -63 -60 -75 l-24 -22 14 62 c7 35
12 87 11 117 -2 58 2 62 72 88 43 15 71 16 104 3z"/>
<path d="M900 1529 c-14 -4 -41 -12 -60 -16 -74 -18 -84 -117 -15 -150 28 -13
36 -13 61 -2 15 8 35 26 43 41 13 23 14 32 2 64 -11 30 -11 38 0 45 22 13 -2
27 -31 18z m-45 -69 c0 -7 -6 -15 -12 -17 -8 -3 -13 4 -13 17 0 13 5 20 13 18
6 -3 12 -11 12 -18z"/>
<path d="M1321 1508 c1 -18 -3 -48 -6 -66 -13 -60 56 -107 114 -78 31 17 41
34 41 75 0 41 -25 68 -72 79 -24 5 -51 13 -60 17 -14 5 -17 1 -17 -27z m75
-39 c10 -17 -13 -36 -27 -22 -12 12 -4 33 11 33 5 0 12 -5 16 -11z"/>
<path d="M1073 1375 c7 -19 55 -29 82 -17 41 19 29 30 -30 28 -32 0 -54 -5
-52 -11z"/>
<path d="M940 1250 c0 -5 12 -17 26 -26 20 -14 52 -18 147 -19 120 -1 176 9
192 35 12 20 -2 22 -28 5 -36 -23 -267 -24 -302 -1 -28 19 -35 20 -35 6z"/>
</g>
</svg>
